***************************** TPB IS BENEDICTION TO ME ****************************


Screen Link :---
 
http://www.shotpix.com/images/36139839658841782522.jpg


General Info :---

Format                           : Matroska
File size                        : 254 MiB
Duration                         : 1h 16mn
Overall bit rate                 : 471 Kbps
Movie name                       : Bedways 2010 DVDRip DivX-Filmikz
Encoded date                     : UTC 2011-06-13 23:24:31
Writing application              : mkvmerge v4.6.0 ('Still Crazy After All These Years') built on Mar 10 2011 02:50:32
Writing library                  : libebml v1.2.0 + libmatroska v1.1.0

Video
ID                               : 1
Format                           : AVC
Format/Info                      : Advanced Video Codec
Format profile                   : High@L4.0
Format settings, CABAC           : Yes
Format settings, ReFrames        : 3 frames
Format settings, GOP             : M=4, N=32
Codec ID                         : V_MPEG4/ISO/AVC
Duration                         : 1h 16mn
Bit rate mode                    : Variable
Bit rate                         : 142 Kbps
Nominal bit rate                 : 150 Kbps
Maximum bit rate                 : 25.0 Mbps
Width                            : 640 pixels
Height                           : 480 pixels
Display aspect ratio             : 4:3
Frame rate                       : 25.000 fps
Color space                      : YUV
Chroma subsampling               : 4:2:0
Bit depth                        : 8 bits
Scan type                        : Progressive
Bits/(Pixel*Frame)               : 0.018
Stream size                      : 76.2 MiB (30%)

Audio
ID                               : 2
Format                           : MPEG Audio
Format version                   : Version 1
Format profile                   : Layer 3
Codec ID                         : A_MPEG/L3
Codec ID/Hint                    : MP3
Duration                         : 1h 16mn
Bit rate mode                    : Constant
Bit rate                         : 320 Kbps
Channel(s)                       : 2 channels
Sampling rate                    : 48.0 KHz
Compression mode                 : Lossy
Stream size                      : 172 MiB (68%)


Genres       : Drama | Music | Romance | Thriller 

Country      : Germany

Language     : German

Release Date : 21 June 2011 (USA)

Director     : Rolf Peter Kahl

Writer       : Rolf Peter Kahl

Stars        : Miriam Mayet, Matthias Faust, Lana Cooper, Laura Tonke, Arno Frisch


Story (synopsis) :---

A film director and her two friends forge an intensely erotic connection while making a movie about love and sex in this provocative drama from Germany. Nina Bader (Miriam Mayet) is a filmmaker on a mission to capture a depiction of pure, uninhibited sex. Young, beautiful, and completely open with their sexuality, Marie (Lana Cooper) and Hans (Matthias Faust) are the perfect candidates for the project. As the production gets under way and the atmosphere on the set grows thick with lust, the barrier between reality and cinema begins to vanish, sweeping all three up in a libertine whirlwind of flesh and desire.




***************************** TPB IS BENEDICTION TO ME ****************************


